# xmcd CD database file
#
# Track frame offsets:
#	150
#	25831
#	45115
#	68734
#	90490
#	109769
#	133565
#	148267
#	159279
#	180336
#	196778
#	219451
#
# Disc length: 3129 seconds
#
# Revision: 0
# Processed by: cddbd v1.4PL0 Copyright (c) Steve Scherf et al.
# Submitted via: CDex 1.51
#
DISCID=940c370c
DTITLE=Veedel Vüür - Määht höösch
DYEAR=1900
DGENRE=Blues
TTITLE0=Bademetdemama
TTITLE1=Mann op d`r Mor
TTITLE2=Fang` jetzt ahn
TTITLE3=Marie (höösch)
TTITLE4=Wat ich well
TTITLE5=Jdanke ahn Dich
TTITLE6=Janz leis
TTITLE7=Wo simmer dann he
TTITLE8=Funkeleed
TTITLE9=Am Engk
TTITLE10=Du un ich
TTITLE11=Jrad noch
EXTD=
EXTT0=
EXTT1=
EXTT2=
EXTT3=
EXTT4=
EXTT5=
EXTT6=
EXTT7=
EXTT8=
EXTT9=
EXTT10=
EXTT11=
PLAYORDER=
